<?xml version="1.0" standalone="no"?>
<!DOCTYPE svg PUBLIC "-//W3C//DTD SVG 20010904//EN"
 "http://www.w3.org/TR/2001/REC-SVG-20010904/DTD/svg10.dtd">
<svg version="1.0" xmlns="http://www.w3.org/2000/svg"
 width="2362.000000pt" height="2362.000000pt" viewBox="0 0 2362.000000 2362.000000"
 preserveAspectRatio="xMidYMid meet">
<metadata>
Created by potrace 1.16, written by Peter Selinger 2001-2019
</metadata>
<g transform="translate(0.000000,2362.000000) scale(0.100000,-0.100000)"
fill="#000000" stroke="none">
<path d="M0 11810 l0 -11810 11810 0 11810 0 0 11810 0 11810 -11810 0 -11810
0 0 -11810z m12022 5790 c2 -6 43 -17 91 -25 48 -9 99 -20 113 -25 14 -6 37
-10 51 -10 54 0 251 -132 319 -215 22 -25 54 -74 73 -108 47 -85 54 -186 21
-285 -27 -79 -94 -185 -167 -261 -29 -31 -53 -60 -53 -66 0 -7 184 -9 575 -6
448 2 633 0 838 -13 870 -53 1514 -183 2082 -419 177 -73 378 -175 473 -238
24 -16 45 -29 48 -29 7 0 102 -68 204 -146 275 -210 500 -477 653 -774 35 -69
69 -138 75 -155 6 -16 20 -55 32 -85 46 -122 93 -278 114 -385 39 -199 46
-251 46 -329 0 -76 -2 -86 -29 -123 -37 -52 -107 -85 -226 -109 -86 -18 -321
-19 -5678 -21 -5482 -3 -5588 -3 -5625 16 -83 43 -112 102 -112 228 0 102 35
279 84 423 45 135 46 137 100 251 20 42 36 79 36 83 0 11 133 232 186 306 264
376 678 718 1134 937 156 75 239 113 248 113 4 0 41 14 82 31 400 163 977 295
1538 349 56 6 148 15 205 22 149 17 1292 17 1500 -1 100 -8 162 -10 168 -4 6
6 -3 28 -24 59 -89 130 -130 263 -131 424 -1 176 39 285 147 397 78 82 164
129 301 168 27 8 54 19 59 24 15 15 444 15 449 1z m3524 -3959 c10 -42 34
-132 50 -182 8 -26 14 -55 14 -64 0 -10 6 -41 14 -69 28 -98 99 -382 116 -461
4 -22 17 -75 28 -118 11 -44 18 -85 16 -92 -3 -7 -29 -25 -57 -41 -29 -15 -65
-35 -82 -44 -16 -9 -82 -45 -146 -78 l-116 -62 -319 -9 c-176 -6 -346 -15
-378 -21 -76 -15 -178 -63 -228 -108 l-38 -34 0 -172 c1 -256 33 -366 122
-422 84 -53 91 -54 678 -54 300 0 551 -4 558 -9 18 -11 20 -962 2 -1016 -6
-19 -30 -51 -53 -70 -50 -43 -178 -106 -272 -135 -70 -20 -77 -20 -1260 -18
-1351 3 -1244 -4 -1336 88 -37 37 -49 58 -58 99 -14 66 -16 2686 -1 2806 15
134 74 225 181 282 l54 28 1240 5 c682 3 1246 3 1253 1 7 -2 15 -15 18 -30z
m-8089 -457 c87 -29 149 -62 192 -104 83 -80 75 62 81 -1570 l5 -1455 33 -93
c56 -162 131 -283 245 -396 58 -57 184 -144 377 -260 52 -32 149 -91 215 -132
66 -41 178 -109 248 -152 71 -42 139 -84 152 -92 13 -8 60 -37 105 -65 45 -27
93 -57 106 -65 13 -8 79 -49 146 -91 408 -252 601 -370 766 -471 57 -35 114
-70 127 -78 13 -8 60 -37 105 -65 45 -27 94 -58 108 -67 15 -10 36 -22 47 -28
11 -6 58 -35 105 -65 150 -95 171 -107 186 -101 12 5 14 74 14 453 0 426 1
449 20 488 25 53 74 105 125 136 39 23 47 24 265 26 124 2 410 8 635 13 383 9
416 9 505 -8 172 -34 281 -102 338 -212 l32 -61 0 -1204 c0 -1118 -1 -1206
-17 -1242 -40 -88 -110 -150 -190 -167 -22 -5 -33 -14 -35 -29 l-3 -22 -633
-3 -632 -2 -10 24 c-7 18 -19 27 -47 31 -80 13 -429 126 -481 155 -9 5 -46 21
-82 36 -216 87 -566 272 -795 419 -27 18 -147 92 -265 165 -118 73 -237 147
-265 165 -27 18 -83 52 -123 76 -40 24 -84 51 -97 59 -12 8 -49 31 -80 50 -31
19 -69 43 -84 52 -14 10 -35 22 -46 28 -11 6 -32 18 -47 28 -15 9 -101 62
-190 116 -90 55 -289 177 -443 271 -154 94 -294 180 -312 191 -18 10 -67 41
-110 67 -43 26 -87 53 -98 60 -11 7 -39 24 -63 40 -24 15 -45 27 -47 27 -3 0
-28 15 -58 33 -29 17 -61 37 -72 44 -47 28 -311 189 -326 198 -9 5 -38 22 -65
38 -27 15 -83 48 -124 74 -41 25 -125 77 -187 115 -62 38 -136 77 -166 87 -79
27 -172 76 -242 126 -107 76 -232 228 -287 348 -10 20 -24 52 -32 70 -35 75
-77 226 -87 316 -4 40 -13 79 -19 86 -7 9 -9 155 -5 466 7 584 7 1602 0 2360
-5 526 -4 598 10 609 8 7 15 20 15 30 0 29 81 110 125 125 33 12 162 14 712
15 588 0 678 -2 720 -16z m10020 -21 c129 -66 221 -159 238 -240 4 -18 11 -33
16 -33 14 0 5 -3103 -10 -3265 -31 -341 -183 -624 -451 -839 -104 -84 -450
-305 -773 -494 -12 -7 -34 -21 -49 -30 -15 -9 -298 -177 -630 -373 -641 -379
-804 -475 -828 -490 -56 -34 -408 -236 -420 -242 -8 -4 -22 -11 -30 -17 -8 -5
-105 -61 -215 -125 -110 -63 -207 -119 -215 -125 -8 -5 -44 -26 -80 -46 -100
-57 -552 -319 -673 -391 -59 -34 -110 -63 -113 -63 -2 0 -18 -10 -34 -21 -63
-47 -60 -80 -60 678 0 495 -3 703 -12 745 -23 113 30 247 132 335 19 16 106
72 193 124 87 52 169 101 182 109 13 8 61 38 107 66 46 28 121 75 168 104 47
29 94 58 105 64 11 6 51 32 90 56 38 25 77 50 86 55 10 6 43 26 74 45 31 19
64 40 74 45 9 6 48 30 86 55 39 24 82 51 96 60 35 21 215 131 244 150 20 13
64 41 164 101 152 93 612 381 666 417 87 59 174 177 265 362 17 36 39 79 48
95 16 27 17 151 22 1480 l5 1450 30 59 c36 71 93 131 148 157 40 18 71 19 667
16 l625 -2 62 -32z"/>
</g>
</svg>
